<svg viewBox="0 0 1440 828" aria-label="Arcane Circle project map prototype"><style>.mono{font-family:monospace}.repo{font-size:12px;font-weight:650}.cat{font-size:11px;font-weight:800;letter-spacing:.16em}.core{font-size:18px;font-weight:800;letter-spacing:.12em}.tiny{font-size:10px;letter-spacing:.12em}</style><defs><radialGradient id="ac-bg"><stop stop-color="#24123f" stop-opacity=".42"/><stop offset=".58" stop-color="#090918" stop-opacity=".16"/><stop offset="1" stop-color="#02030a" stop-opacity="0"/></radialGradient><filter id="ac-glow"><feGaussianBlur stdDeviation="4" result="b"/><feMerge><feMergeNode in="b"/><feMergeNode in="SourceGraphic"/></feMerge></filter><filter id="ac-soft"><feGaussianBlur stdDeviation="11"/></filter></defs><rect width="1440" height="828" fill="#03040b"/><circle cx="720" cy="414" r="335" fill="url(#ac-bg)"/><g opacity=".18" fill="#c4b5fd"><circle cx="142" cy="128" r="1"/><circle cx="1270" cy="95" r="1.2"/><circle cx="1118" cy="685" r="1"/><circle cx="312" cy="716" r="1"/><circle cx="1325" cy="522" r=".8"/><circle cx="92" cy="518" r=".8"/></g><g transform="translate(720 414)" fill="none" stroke="#a78bfa"><circle r="282" stroke-opacity=".12" stroke-width="22" filter="url(#ac-soft)"/><circle r="286" stroke-opacity=".55" stroke-width="1.2"/><circle r="250" stroke-opacity=".22" stroke-dasharray="3 9"/><circle r="202" stroke="#67e8f9" stroke-opacity=".28" stroke-width="1"/><circle r="146" stroke-opacity=".42" stroke-width="1.1"/><circle r="93" stroke="#e9d5ff" stroke-opacity=".62"/><g class="spin" stroke-opacity=".25"><polygon points="0,-236 204,118 -204,118"/><polygon points="0,236 204,-118 -204,-118"/></g><g class="spinrev" stroke="#67e8f9" stroke-opacity=".22"><rect x="-152" y="-152" width="304" height="304" transform="rotate(45)"/><circle r="170" stroke-dasharray="14 8 2 8"/></g><g stroke="#d8b4fe" stroke-opacity=".45" class="spin"><path d="M0-276v-18M138-239l9-16M239-138l16-9M276 0h18M239 138l16 9M138 239l9 16M0 276v18M-138 239l-9 16M-239 138l-16 9M-276 0h-18M-239-138l-16-9M-138-239l-9-16"/></g></g><g fill="none" stroke="#8b5cf6" stroke-opacity=".32" stroke-width="1.2"><path d="M720 414L720 180M720 414L945 306M720 414L940 544M720 414L505 550"/></g><g filter="url(#ac-glow)"><g transform="translate(720 180)"><circle r="30" fill="#0b0b20" stroke="#c4b5fd" stroke-width="1.4"/><circle r="19" fill="none" stroke="#c4b5fd" opacity=".45"/><path d="M0-13 11 7H-11Z" fill="none" stroke="#c4b5fd"/><text y="50" text-anchor="middle" class="cat" fill="#ddd6fe">AI / INTELLIGENCE</text></g><g transform="translate(945 306)"><circle r="30" fill="#07151a" stroke="#67e8f9"/><path d="M-12 0h24M0-12v24M-9-9 9 9M9-9-9 9" stroke="#67e8f9" opacity=".6"/><text x="48" y="4" class="cat" fill="#a5f3fc">ROBOTICS</text></g><g transform="translate(940 544)"><circle r="30" fill="#180914" stroke="#f0abfc"/><polygon points="0,-14 13,10 -13,10" fill="none" stroke="#f0abfc"/><text x="47" y="5" class="cat" fill="#f5d0fe">SYSTEMS</text></g><g transform="translate(505 550)"><circle r="30" fill="#17120a" stroke="#fcd34d"/><rect x="-10" y="-10" width="20" height="20" transform="rotate(45)" fill="none" stroke="#fcd34d"/><text x="-48" y="5" text-anchor="end" class="cat" fill="#fde68a">SIMULATION</text></g></g><g fill="#050712" stroke-width="1.2"><g transform="translate(592 111)"><circle r="16" stroke="#c4b5fd"/><text x="-25" y="-24" text-anchor="middle" class="repo" fill="#e9d5ff">DeciDelta</text></g><g transform="translate(842 112)"><circle r="20" stroke="#c4b5fd"/><circle r="5" fill="#c4b5fd" stroke="none" class="pulse"/><text x="25" y="-24" class="repo" fill="#e9d5ff">civitas-residents</text></g><g transform="translate(1072 250)"><circle r="17" stroke="#67e8f9"/><text x="28" y="4" class="repo" fill="#cffafe">lime_tidyup</text></g><g transform="translate(1100 465)"><circle r="15" stroke="#67e8f9"/><text x="29" y="4" class="repo" fill="#cffafe">dual-scorpion-sim</text></g><g transform="translate(1045 635)"><circle r="19" stroke="#f0abfc"/><text x="26" y="25" class="repo" fill="#fae8ff">interactive-project-map</text></g><g transform="translate(768 704)"><circle r="16" stroke="#f0abfc"/><text x="0" y="34" text-anchor="middle" class="repo" fill="#fae8ff">common-runner</text></g><g transform="translate(365 645)"><circle r="17" stroke="#fcd34d"/><text x="-28" y="24" text-anchor="end" class="repo" fill="#fef3c7">Doctravia</text></g><g transform="translate(350 380)"><circle r="15" stroke="#fcd34d"/><text x="-28" y="4" text-anchor="end" class="repo" fill="#fef3c7">microfactory-lab</text></g></g><g transform="translate(720 414)" filter="url(#ac-glow)"><circle r="69" fill="#080611" stroke="#e9d5ff" stroke-width="1.5"/><circle r="53" fill="none" stroke="#8b5cf6" stroke-opacity=".55" stroke-dasharray="4 7"/><circle r="17" fill="#7c3aed" fill-opacity=".5"/><circle r="8" fill="#ede9fe" class="pulse"/><text y="-25" text-anchor="middle" class="tiny" fill="#a78bfa">OWNER NODE</text><text y="34" text-anchor="middle" class="core" fill="#fff">YUU</text><text y="52" text-anchor="middle" class="tiny" fill="#94a3b8">SYSTEM CORE</text></g><g transform="translate(42 742)"><text class="tiny" fill="#64748b">ARCANE CIRCLE // OWNER → CATEGORY → REPOSITORY</text><text y="22" class="mono" font-size="11" fill="#94a3b8">semantic rings · glyph hierarchy · focus-ready sigils</text></g></svg>