<svg viewBox="0 0 1440 828" aria-label="Celestial Orrery project map prototype"><style>.mono{font-family:monospace}.repo{font-size:12px;font-weight:650}.cat{font-size:11px;font-weight:800;letter-spacing:.16em}.core{font-size:18px;font-weight:800;letter-spacing:.12em}.tiny{font-size:10px;letter-spacing:.12em}</style><defs><radialGradient id="co-core"><stop stop-color="#fff7cc"/><stop offset=".2" stop-color="#fbbf24"/><stop offset=".58" stop-color="#7c3aed" stop-opacity=".22"/><stop offset="1" stop-color="#111827" stop-opacity="0"/></radialGradient><radialGradient id="co-blue"><stop stop-color="#bfdbfe"/><stop offset=".28" stop-color="#60a5fa"/><stop offset="1" stop-color="#1d4ed8"/></radialGradient><radialGradient id="co-purple"><stop stop-color="#f5d0fe"/><stop offset=".3" stop-color="#c084fc"/><stop offset="1" stop-color="#6b21a8"/></radialGradient><radialGradient id="co-teal"><stop stop-color="#ccfbf1"/><stop offset=".3" stop-color="#2dd4bf"/><stop offset="1" stop-color="#115e59"/></radialGradient><filter id="co-glow"><feGaussianBlur stdDeviation="5" result="b"/><feMerge><feMergeNode in="b"/><feMergeNode in="SourceGraphic"/></feMerge></filter></defs><rect width="1440" height="828" fill="#02050d"/><g fill="#dbeafe" opacity=".5"><circle cx="93" cy="108" r="1"/><circle cx="186" cy="267" r=".8"/><circle cx="1218" cy="117" r="1"/><circle cx="1328" cy="335" r=".8"/><circle cx="1127" cy="724" r="1"/><circle cx="355" cy="734" r="1"/><circle cx="1240" cy="602" r=".7"/><circle cx="203" cy="606" r=".7"/></g><g transform="translate(720 418)" fill="none" stroke="#64748b" stroke-opacity=".22"><ellipse rx="360" ry="142"/><ellipse rx="295" ry="114"/><ellipse rx="222" ry="86"/><ellipse rx="145" ry="56"/><ellipse rx="320" ry="122" transform="rotate(58)" stroke="#60a5fa" stroke-opacity=".18"/><ellipse rx="320" ry="122" transform="rotate(-58)" stroke="#c084fc" stroke-opacity=".18"/><circle r="310" stroke-dasharray="1 13" stroke-opacity=".15"/></g><g fill="none" stroke-width="1.2"><path d="M720 418C845 315 969 304 1095 356" stroke="#60a5fa" stroke-opacity=".35"/><path d="M720 418C587 310 465 314 337 370" stroke="#2dd4bf" stroke-opacity=".35"/><path d="M720 418C817 534 893 589 996 628" stroke="#c084fc" stroke-opacity=".35"/><path d="M720 418C618 533 548 587 444 625" stroke="#f59e0b" stroke-opacity=".32"/></g><g filter="url(#co-glow)"><g transform="translate(1095 356)"><circle r="36" fill="url(#co-blue)"/><ellipse rx="54" ry="12" fill="none" stroke="#93c5fd" stroke-opacity=".6" transform="rotate(-14)"/><circle cx="-48" cy="-14" r="7" fill="#dbeafe"/><text x="58" y="-4" class="cat" fill="#bfdbfe">AI / LLM</text><text x="58" y="17" class="repo" fill="#dbeafe">Civitas · DeciDelta</text></g><g transform="translate(337 370)"><circle r="32" fill="url(#co-teal)"/><ellipse rx="48" ry="11" fill="none" stroke="#5eead4" stroke-opacity=".55" transform="rotate(12)"/><circle cx="45" cy="-10" r="6" fill="#99f6e4"/><text x="-57" y="-4" text-anchor="end" class="cat" fill="#99f6e4">ROBOTICS</text><text x="-57" y="17" text-anchor="end" class="repo" fill="#ccfbf1">lime_tidyup · dual-scorpion</text></g><g transform="translate(996 628)"><circle r="34" fill="url(#co-purple)"/><ellipse rx="51" ry="12" fill="none" stroke="#d8b4fe" stroke-opacity=".55" transform="rotate(18)"/><circle cx="-45" cy="17" r="6" fill="#e9d5ff"/><text x="56" y="-4" class="cat" fill="#e9d5ff">SYSTEMS</text><text x="56" y="17" class="repo" fill="#f3e8ff">IPM · common-runner</text></g><g transform="translate(444 625)"><circle r="31" fill="#b45309"/><circle r="24" fill="#f59e0b" opacity=".45"/><ellipse rx="47" ry="10" fill="none" stroke="#fbbf24" stroke-opacity=".55" transform="rotate(-18)"/><circle cx="44" cy="14" r="6" fill="#fde68a"/><text x="-54" y="-4" text-anchor="end" class="cat" fill="#fde68a">SIMULATION</text><text x="-54" y="17" text-anchor="end" class="repo" fill="#fef3c7">Doctravia · microfactory</text></g></g><g fill="#0b1220" stroke="#94a3b8"><circle cx="1150" cy="278" r="10"/><circle cx="1020" cy="251" r="9"/><circle cx="280" cy="290" r="9"/><circle cx="380" cy="275" r="8"/><circle cx="1050" cy="705" r="9"/><circle cx="915" cy="715" r="8"/><circle cx="385" cy="702" r="9"/><circle cx="505" cy="720" r="8"/></g><g transform="translate(720 418)" filter="url(#co-glow)"><circle r="112" fill="url(#co-core)" opacity=".58"/><circle r="63" fill="#140e14" stroke="#fde68a" stroke-width="1.4"/><circle r="48" fill="none" stroke="#fbbf24" stroke-opacity=".6"/><circle r="20" fill="#f59e0b"/><circle r="9" fill="#fff7cc" class="pulse"/><text y="-18" text-anchor="middle" class="tiny" fill="#fde68a">PRIMARY STAR</text><text y="17" text-anchor="middle" class="core" fill="#fff">YUU</text><text y="38" text-anchor="middle" class="tiny" fill="#cbd5e1">SYSTEM CORE</text></g><g class="mono" font-size="10" fill="#64748b"><text x="83" y="115">CELESTIAL ORRERY // SEMANTIC ORBITS</text><text x="83" y="135">category = planetary system</text><text x="83" y="153">repository = planet / moon</text><text x="83" y="171">relation = orbital resonance</text></g><g transform="translate(42 742)"><text class="tiny" fill="#60758f">CELESTIAL ORRERY // ORDERED 3D-LIKE PROJECT SYSTEM</text><text y="22" class="mono" font-size="11" fill="#8291a7">more structured than Galaxy · calmer than force-directed space</text></g></svg>